<svg width="223" height="216" viewBox="0 0 223 216" fill="none" xmlns="http://www.w3.org/2000/svg">
<path fill-rule="evenodd" clip-rule="evenodd" d="M149.288 2.2476C149.278 1.88308 149.181 1.52625 149.003 1.20788C148.825 0.889516 148.573 0.619171 148.267 0.420163C147.962 0.221155 147.612 0.0994601 147.249 0.0655703C146.886 0.0316805 146.52 0.0866154 146.183 0.225637L115.259 13.4517C114.858 13.6233 114.516 13.9084 114.275 14.2719C114.035 14.6354 113.905 15.0613 113.903 15.4974V20.255C113.903 20.5531 113.977 20.8466 114.118 21.1092C114.259 21.3719 114.463 21.5956 114.712 21.7604C114.96 21.9253 115.245 22.0261 115.542 22.0539C115.839 22.0818 116.138 22.0358 116.413 21.9201L147.706 8.58705C148.198 8.37833 148.618 8.02873 148.912 7.5822C149.206 7.13567 149.361 6.61214 149.359 6.07743L149.288 2.2476Z" fill="#1DA1F2"/>
<path fill-rule="evenodd" clip-rule="evenodd" d="M108.194 13.452L77.1631 0.202199C76.8911 0.0746211 76.5952 0.00572657 76.2948 0C75.8687 0.00214085 75.4536 0.13499 75.1054 0.380604C74.7918 0.574106 74.5337 0.845721 74.3565 1.16887C74.1793 1.49203 74.089 1.85565 74.0944 2.22416V5.79233C74.0938 6.38003 74.266 6.95494 74.5896 7.44555C74.9131 7.93617 75.3738 8.32084 75.9142 8.55172L107.183 21.9086C107.444 22.0155 107.727 22.0569 108.008 22.029C108.288 22.0012 108.558 21.905 108.792 21.7489C109.027 21.5928 109.22 21.3815 109.354 21.1336C109.488 20.8856 109.56 20.6086 109.562 20.3267V15.4978C109.561 15.06 109.43 14.6324 109.187 14.2685C108.944 13.9046 108.598 13.6205 108.194 13.452Z" fill="#1DA1F2"/>
<path fill-rule="evenodd" clip-rule="evenodd" d="M115.283 27.2605C114.885 27.4265 114.545 27.7076 114.308 28.0679C114.07 28.4281 113.946 28.8511 113.951 29.2825V34.5158C113.96 34.7017 114.013 34.8828 114.105 35.0445C114.197 35.2063 114.326 35.3442 114.481 35.4472C114.636 35.5501 114.813 35.6153 114.998 35.6374C115.182 35.6595 115.37 35.6379 115.545 35.5744L149.347 21.1114L151.583 20.1718L153.807 19.2203L160.706 16.2111C161.229 15.9878 161.674 15.6144 161.986 15.1381C162.297 14.6618 162.46 14.1039 162.454 13.535V10.4426C162.459 10.0782 162.372 9.71847 162.202 9.39637C162.031 9.07427 161.783 8.8001 161.479 8.59901C161.127 8.36177 160.714 8.22975 160.289 8.21841C159.981 8.21883 159.676 8.2879 159.397 8.42061L153.784 10.7994L151.559 11.739L149.335 12.6905L115.283 27.2605Z" fill="#1DA1F2"/>
<path fill-rule="evenodd" clip-rule="evenodd" d="M108.194 27.2605L74.0586 12.6429L71.8344 11.7152L69.6103 10.7518L63.9726 8.37302C63.6964 8.26151 63.4022 8.20106 63.1043 8.19461C62.8144 8.19147 62.5267 8.24568 62.2577 8.3541C61.9888 8.46253 61.744 8.62305 61.5373 8.82643C61.3306 9.0298 61.1661 9.27203 61.0533 9.53918C60.9406 9.80632 60.8817 10.0931 60.8802 10.3831V13.8323C60.8772 14.2999 61.0122 14.7581 61.2681 15.1494C61.5241 15.5408 61.8897 15.848 62.3193 16.0327L69.5746 19.1251L71.7988 20.0885L74.0348 21.04L107.671 35.4079C107.872 35.4924 108.091 35.527 108.309 35.5088C108.526 35.4906 108.736 35.4201 108.921 35.3033C109.105 35.1865 109.259 35.0269 109.368 34.838C109.478 34.6492 109.54 34.4366 109.55 34.2185V29.2944C109.554 28.8586 109.426 28.4318 109.185 28.0691C108.943 27.7065 108.598 27.4248 108.194 27.2605Z" fill="#1DA1F2"/>
<path fill-rule="evenodd" clip-rule="evenodd" d="M176.109 17.8647C176.115 17.4957 176.027 17.1313 175.852 16.8063C175.677 16.4814 175.421 16.2069 175.109 16.0092C174.759 15.7689 174.345 15.6366 173.92 15.6286C173.62 15.6343 173.324 15.7032 173.052 15.8308L166.927 18.4356L164.702 19.399L162.478 20.3505L153.819 24.0495L151.595 25.001L149.359 25.9644L115.343 40.4988C114.94 40.6644 114.596 40.9464 114.354 41.3087C114.113 41.671 113.985 42.0972 113.987 42.5326V64.346C113.993 64.2867 113.993 64.2269 113.987 64.1676V67.486V69.8648V96.638C113.981 96.8183 114.001 96.9985 114.046 97.1732V100.503V102.882V129.786C114.038 130.164 114.132 130.537 114.318 130.866C114.504 131.195 114.776 131.467 115.105 131.654C115.421 131.858 115.784 131.976 116.159 131.997C116.535 132.018 116.909 131.94 117.246 131.773L175.383 102.335C175.748 102.149 176.053 101.865 176.264 101.513C176.474 101.162 176.581 100.758 176.572 100.349L176.109 17.8647Z" fill="#1DA1F2"/>
<path fill-rule="evenodd" clip-rule="evenodd" d="M108.194 40.4985L74.0231 25.8691L71.7989 24.9175L69.5629 23.9779L60.8803 20.267L58.6562 19.3036L56.432 18.3521L50.3305 15.7473C50.0473 15.631 49.7445 15.5705 49.4384 15.5689C49.0149 15.5761 48.6023 15.704 48.249 15.9377C47.9417 16.1341 47.6889 16.405 47.5142 16.7252C47.3395 17.0454 47.2487 17.4046 47.2499 17.7693L47.0001 100.349C46.9956 100.757 47.1043 101.159 47.3143 101.51C47.5242 101.86 47.8272 102.146 48.1895 102.335L106.327 131.772C106.667 131.937 107.043 132.014 107.421 131.998C107.799 131.981 108.167 131.871 108.492 131.677C108.818 131.481 109.088 131.203 109.275 130.872C109.463 130.541 109.561 130.167 109.562 129.786V42.5324C109.563 42.0956 109.433 41.6685 109.19 41.306C108.946 40.9436 108.599 40.6623 108.194 40.4985Z" fill="#1DA1F2"/>
<path fill-rule="evenodd" clip-rule="evenodd" d="M98.2153 97.6367C97.8447 97.8549 97.4229 97.9711 96.9928 97.9737C96.5627 97.9762 96.1396 97.865 95.7664 97.6512C95.3932 97.4374 95.0832 97.1287 94.8678 96.7564C94.6524 96.3842 94.5394 95.9615 94.5401 95.5314V73.8608V52.1901C94.54 51.7611 94.6526 51.3397 94.8665 50.9679C95.0805 50.5961 95.3882 50.2869 95.7591 50.0714C96.13 49.8559 96.5509 49.7415 96.9799 49.7396C97.4088 49.7378 97.8307 49.8487 98.2034 50.0611L116.984 60.8726L135.764 71.6842C136.135 71.8998 136.442 72.2088 136.655 72.5803C136.869 72.9518 136.981 73.3728 136.981 73.8013C136.981 74.2298 136.869 74.6507 136.655 75.0222C136.442 75.3937 136.135 75.7027 135.764 75.9184L117.008 86.7775L98.2153 97.6367Z" fill="white"/>
<path d="M27.8428 152.429H17.2035V182.606H10.6393V152.429H0V146.985H27.8428V152.429Z" fill="#1F3965"/>
<path d="M41.7761 167.062C41.7761 166.274 41.6622 165.535 41.4344 164.845C41.2229 164.139 40.8976 163.523 40.4584 162.997C40.0191 162.472 39.4579 162.061 38.7746 161.766C38.1076 161.454 37.3267 161.298 36.432 161.298C34.6913 161.298 33.3167 161.798 32.308 162.8C31.3157 163.802 30.6812 165.223 30.4047 167.062H41.7761ZM30.2827 170.732C30.3803 172.03 30.608 173.155 30.9659 174.107C31.3238 175.043 31.7956 175.823 32.3812 176.447C32.9669 177.055 33.6583 177.515 34.4554 177.827C35.2688 178.123 36.1636 178.27 37.1397 178.27C38.1157 178.27 38.9535 178.155 39.6531 177.925C40.3689 177.696 40.9871 177.441 41.5076 177.162C42.0445 176.883 42.5081 176.628 42.8986 176.398C43.3053 176.168 43.6957 176.053 44.0699 176.053C44.5742 176.053 44.9483 176.242 45.1924 176.62L46.9249 178.837C46.2579 179.625 45.5096 180.29 44.6799 180.832C43.8502 181.358 42.9799 181.785 42.0689 182.113C41.1741 182.425 40.255 182.647 39.3114 182.778C38.3842 182.91 37.4813 182.975 36.6028 182.975C34.8621 182.975 33.2435 182.688 31.7468 182.113C30.2501 181.522 28.9487 180.66 27.8424 179.527C26.7362 178.377 25.8659 176.965 25.2314 175.29C24.597 173.598 24.2797 171.644 24.2797 169.427C24.2797 167.702 24.5563 166.085 25.1094 164.574C25.6625 163.047 26.4515 161.725 27.4764 160.608C28.5176 159.475 29.7783 158.58 31.2587 157.923C32.7554 157.266 34.4392 156.937 36.31 156.937C37.888 156.937 39.344 157.192 40.678 157.701C42.012 158.21 43.1588 158.957 44.1187 159.943C45.0785 160.912 45.8268 162.111 46.3637 163.539C46.9168 164.952 47.1933 166.569 47.1933 168.392C47.1933 169.312 47.0957 169.936 46.9005 170.264C46.7053 170.576 46.3311 170.732 45.778 170.732H30.2827Z" fill="#1F3965"/>
<path d="M64.9425 171.816C63.2018 171.898 61.7376 172.054 60.5501 172.284C59.3625 172.498 58.4108 172.777 57.695 173.122C56.9792 173.467 56.4668 173.869 56.1577 174.329C55.8486 174.789 55.694 175.29 55.694 175.832C55.694 176.899 56.0031 177.663 56.6213 178.123C57.2558 178.582 58.0773 178.812 59.0859 178.812C60.3223 178.812 61.3879 178.591 62.2826 178.147C63.1936 177.687 64.0802 176.998 64.9425 176.078V171.816ZM51.1308 160.854C54.0103 158.194 57.4754 156.864 61.5262 156.864C62.9903 156.864 64.2999 157.11 65.4549 157.603C66.6099 158.079 67.586 158.752 68.3831 159.623C69.1803 160.476 69.7822 161.503 70.1889 162.702C70.6119 163.901 70.8234 165.214 70.8234 166.643V182.606H68.0903C67.5209 182.606 67.0817 182.524 66.7726 182.36C66.4635 182.179 66.2195 181.826 66.0406 181.3L65.5037 179.477C64.8692 180.052 64.2511 180.561 63.6491 181.005C63.0472 181.432 62.4209 181.793 61.7702 182.089C61.1195 182.384 60.4199 182.606 59.6716 182.754C58.9395 182.918 58.1261 183 57.2314 183C56.174 183 55.1979 182.86 54.3031 182.581C53.4084 182.286 52.6357 181.85 51.9849 181.276C51.3342 180.701 50.8299 179.986 50.472 179.132C50.1141 178.279 49.9351 177.285 49.9351 176.152C49.9351 175.511 50.0409 174.879 50.2524 174.255C50.4639 173.615 50.8055 173.007 51.2773 172.432C51.7653 171.857 52.3916 171.315 53.1562 170.806C53.9208 170.297 54.8562 169.854 55.9625 169.476C57.085 169.098 58.3864 168.794 59.8668 168.565C61.3472 168.318 63.0391 168.17 64.9425 168.121V166.643C64.9425 164.952 64.5846 163.704 63.8688 162.899C63.153 162.078 62.1199 161.667 60.7697 161.667C59.7936 161.667 58.9802 161.782 58.3295 162.012C57.695 162.242 57.1338 162.505 56.6457 162.8C56.1577 163.079 55.7103 163.334 55.3036 163.564C54.9132 163.794 54.4739 163.909 53.9859 163.909C53.5629 163.909 53.205 163.802 52.9122 163.589C52.6194 163.359 52.3835 163.096 52.2045 162.8L51.1308 160.854Z" fill="#1F3965"/>
<path d="M94.4355 162.677C94.2565 162.907 94.0776 163.088 93.8986 163.219C93.7359 163.35 93.4919 163.416 93.1666 163.416C92.8575 163.416 92.5565 163.326 92.2637 163.145C91.9709 162.948 91.6211 162.735 91.2144 162.505C90.8077 162.258 90.3196 162.045 89.7503 161.864C89.1972 161.667 88.5058 161.569 87.6761 161.569C86.6187 161.569 85.6914 161.766 84.8942 162.16C84.0971 162.538 83.4301 163.088 82.8933 163.81C82.3727 164.533 81.9823 165.411 81.722 166.446C81.4617 167.464 81.3315 168.622 81.3315 169.919C81.3315 171.266 81.4698 172.465 81.7464 173.516C82.0392 174.567 82.454 175.454 82.9909 176.176C83.5277 176.883 84.1785 177.425 84.9431 177.802C85.7076 178.164 86.5699 178.344 87.5297 178.344C88.4895 178.344 89.2622 178.229 89.8479 177.999C90.4498 177.753 90.9541 177.49 91.3608 177.211C91.7675 176.915 92.1173 176.653 92.4101 176.423C92.7192 176.176 93.0608 176.053 93.435 176.053C93.923 176.053 94.2891 176.242 94.5331 176.62L96.2656 178.837C95.5986 179.625 94.8747 180.29 94.0938 180.832C93.313 181.358 92.4996 181.785 91.6536 182.113C90.824 182.425 89.9618 182.647 89.067 182.778C88.1885 182.91 87.3101 182.975 86.4316 182.975C84.8861 182.975 83.4301 182.688 82.0636 182.113C80.6971 181.522 79.5014 180.668 78.4765 179.551C77.4516 178.435 76.6382 177.071 76.0363 175.462C75.4506 173.836 75.1578 171.989 75.1578 169.919C75.1578 168.064 75.4181 166.348 75.9387 164.771C76.4755 163.178 77.2564 161.807 78.2813 160.657C79.3062 159.491 80.5751 158.58 82.088 157.923C83.6009 157.266 85.3416 156.937 87.3101 156.937C89.1809 156.937 90.8158 157.241 92.2149 157.849C93.6302 158.457 94.8991 159.327 96.0216 160.46L94.4355 162.677Z" fill="#1F3965"/>
<path d="M106.071 160.041C107.048 159.122 108.121 158.374 109.293 157.8C110.464 157.225 111.839 156.937 113.417 156.937C114.783 156.937 115.995 157.176 117.052 157.652C118.11 158.112 118.988 158.769 119.688 159.623C120.404 160.46 120.941 161.47 121.298 162.652C121.673 163.818 121.86 165.108 121.86 166.52V182.606H115.832V166.52C115.832 164.976 115.483 163.786 114.783 162.948C114.084 162.094 113.018 161.667 111.586 161.667C110.545 161.667 109.569 161.905 108.658 162.381C107.747 162.858 106.885 163.506 106.071 164.328V182.606H100.044V146H106.071V160.041Z" fill="#1F3965"/>
<path d="M127.592 182.606V157.332H131.277C132.057 157.332 132.57 157.701 132.814 158.44L133.204 160.312C133.644 159.82 134.099 159.368 134.571 158.957C135.059 158.547 135.571 158.194 136.108 157.898C136.661 157.603 137.247 157.373 137.865 157.208C138.5 157.028 139.191 156.937 139.939 156.937C141.517 156.937 142.811 157.373 143.819 158.243C144.844 159.097 145.609 160.238 146.113 161.667C146.504 160.83 146.992 160.115 147.577 159.524C148.163 158.916 148.805 158.424 149.505 158.046C150.205 157.668 150.945 157.389 151.726 157.208C152.523 157.028 153.32 156.937 154.117 156.937C155.5 156.937 156.728 157.151 157.802 157.578C158.875 158.005 159.778 158.629 160.51 159.45C161.242 160.271 161.796 161.273 162.17 162.455C162.56 163.638 162.755 164.993 162.755 166.52V182.606H156.728V166.52C156.728 164.911 156.378 163.704 155.679 162.899C154.979 162.078 153.954 161.667 152.604 161.667C151.986 161.667 151.408 161.774 150.872 161.987C150.351 162.201 149.887 162.513 149.481 162.923C149.09 163.318 148.781 163.818 148.553 164.426C148.326 165.034 148.212 165.732 148.212 166.52V182.606H142.16V166.52C142.16 164.828 141.818 163.597 141.135 162.825C140.468 162.053 139.484 161.667 138.182 161.667C137.304 161.667 136.482 161.889 135.718 162.332C134.969 162.759 134.27 163.35 133.619 164.106V182.606H127.592Z" fill="#1F3965"/>
<path d="M174.731 157.332V182.606H168.68V157.332H174.731ZM175.561 149.966C175.561 150.492 175.455 150.984 175.244 151.444C175.032 151.904 174.748 152.306 174.39 152.651C174.048 152.996 173.641 153.275 173.17 153.489C172.698 153.686 172.194 153.784 171.657 153.784C171.136 153.784 170.64 153.686 170.168 153.489C169.713 153.275 169.314 152.996 168.973 152.651C168.631 152.306 168.354 151.904 168.143 151.444C167.948 150.984 167.85 150.492 167.85 149.966C167.85 149.424 167.948 148.915 168.143 148.439C168.354 147.962 168.631 147.552 168.973 147.207C169.314 146.862 169.713 146.591 170.168 146.394C170.64 146.181 171.136 146.074 171.657 146.074C172.194 146.074 172.698 146.181 173.17 146.394C173.641 146.591 174.048 146.862 174.39 147.207C174.748 147.552 175.032 147.962 175.244 148.439C175.455 148.915 175.561 149.424 175.561 149.966Z" fill="#1F3965"/>
<path d="M186.513 160.435C187.017 159.926 187.546 159.458 188.099 159.031C188.669 158.588 189.262 158.218 189.881 157.923C190.515 157.611 191.19 157.373 191.906 157.208C192.622 157.028 193.403 156.937 194.249 156.937C195.615 156.937 196.827 157.176 197.884 157.652C198.942 158.112 199.82 158.769 200.52 159.623C201.236 160.46 201.773 161.47 202.13 162.652C202.505 163.818 202.692 165.108 202.692 166.52V182.606H196.664V166.52C196.664 164.976 196.315 163.786 195.615 162.948C194.916 162.094 193.85 161.667 192.418 161.667C191.377 161.667 190.401 161.905 189.49 162.381C188.579 162.858 187.717 163.506 186.904 164.328V182.606H180.876V157.332H184.561C185.342 157.332 185.854 157.701 186.098 158.44L186.513 160.435Z" fill="#1F3965"/>
<path d="M216.436 183C214.256 183 212.58 182.384 211.409 181.152C210.254 179.904 209.676 178.188 209.676 176.004V161.889H207.114C206.789 161.889 206.512 161.782 206.285 161.569C206.057 161.355 205.943 161.035 205.943 160.608V158.194L209.969 157.529L211.238 150.631C211.32 150.303 211.474 150.048 211.702 149.868C211.93 149.687 212.222 149.597 212.58 149.597H215.704V157.553H222.39V161.889H215.704V175.585C215.704 176.374 215.891 176.989 216.265 177.433C216.655 177.876 217.184 178.098 217.851 178.098C218.225 178.098 218.534 178.057 218.778 177.975C219.039 177.876 219.258 177.778 219.437 177.679C219.633 177.581 219.803 177.49 219.95 177.408C220.096 177.31 220.243 177.26 220.389 177.26C220.568 177.26 220.714 177.31 220.828 177.408C220.942 177.49 221.064 177.622 221.194 177.802L223 180.758C222.122 181.497 221.113 182.056 219.974 182.433C218.835 182.811 217.656 183 216.436 183Z" fill="#1F3965"/>
<path d="M15.0594 201.536V202.84H11.3554V213H9.80338V202.84H6.08338V201.536H15.0594ZM15.1836 213V204.896H15.9996C16.1543 204.896 16.261 204.925 16.3196 204.984C16.3783 205.043 16.4183 205.144 16.4396 205.288L16.5356 206.552C16.813 205.987 17.1543 205.547 17.5596 205.232C17.9703 204.912 18.4503 204.752 18.9996 204.752C19.2236 204.752 19.4263 204.779 19.6076 204.832C19.789 204.88 19.957 204.949 20.1116 205.04L19.9276 206.104C19.8903 206.237 19.8076 206.304 19.6796 206.304C19.605 206.304 19.4903 206.28 19.3356 206.232C19.181 206.179 18.965 206.152 18.6876 206.152C18.1916 206.152 17.7756 206.296 17.4396 206.584C17.109 206.872 16.8316 207.291 16.6076 207.84V213H15.1836ZM22.8688 204.896V210.064C22.8688 210.677 23.0101 211.152 23.2928 211.488C23.5754 211.824 24.0021 211.992 24.5728 211.992C24.9888 211.992 25.3808 211.893 25.7488 211.696C26.1168 211.499 26.4554 211.224 26.7648 210.872V204.896H28.1888V213H27.3408C27.1381 213 27.0101 212.901 26.9568 212.704L26.8448 211.832C26.4928 212.221 26.0981 212.536 25.6608 212.776C25.2234 213.011 24.7221 213.128 24.1568 213.128C23.7141 213.128 23.3221 213.056 22.9808 212.912C22.6448 212.763 22.3621 212.555 22.1328 212.288C21.9034 212.021 21.7301 211.699 21.6128 211.32C21.5008 210.941 21.4448 210.523 21.4448 210.064V204.896H22.8688ZM35.1674 206.232C35.1034 206.349 35.0047 206.408 34.8714 206.408C34.7914 206.408 34.7007 206.379 34.5994 206.32C34.498 206.261 34.3727 206.197 34.2234 206.128C34.0794 206.053 33.906 205.987 33.7034 205.928C33.5007 205.864 33.2607 205.832 32.9834 205.832C32.7434 205.832 32.5274 205.864 32.3354 205.928C32.1434 205.987 31.978 206.069 31.8394 206.176C31.706 206.283 31.602 206.408 31.5274 206.552C31.458 206.691 31.4234 206.843 31.4234 207.008C31.4234 207.216 31.482 207.389 31.5994 207.528C31.722 207.667 31.882 207.787 32.0794 207.888C32.2767 207.989 32.5007 208.08 32.7514 208.16C33.002 208.235 33.258 208.317 33.5194 208.408C33.786 208.493 34.0447 208.589 34.2954 208.696C34.546 208.803 34.77 208.936 34.9674 209.096C35.1647 209.256 35.322 209.453 35.4394 209.688C35.562 209.917 35.6234 210.195 35.6234 210.52C35.6234 210.893 35.5567 211.24 35.4234 211.56C35.29 211.875 35.0927 212.149 34.8314 212.384C34.57 212.613 34.25 212.795 33.8714 212.928C33.4927 213.061 33.0554 213.128 32.5594 213.128C31.994 213.128 31.482 213.037 31.0234 212.856C30.5647 212.669 30.1754 212.432 29.8554 212.144L30.1914 211.6C30.234 211.531 30.2847 211.477 30.3434 211.44C30.402 211.403 30.4794 211.384 30.5754 211.384C30.6714 211.384 30.7727 211.421 30.8794 211.496C30.986 211.571 31.114 211.653 31.2634 211.744C31.418 211.835 31.602 211.917 31.8154 211.992C32.034 212.067 32.306 212.104 32.6314 212.104C32.9087 212.104 33.1514 212.069 33.3594 212C33.5674 211.925 33.7407 211.827 33.8794 211.704C34.018 211.581 34.1194 211.44 34.1834 211.28C34.2527 211.12 34.2874 210.949 34.2874 210.768C34.2874 210.544 34.226 210.36 34.1034 210.216C33.986 210.067 33.8287 209.941 33.6314 209.84C33.434 209.733 33.2074 209.643 32.9514 209.568C32.7007 209.488 32.442 209.405 32.1754 209.32C31.914 209.235 31.6554 209.139 31.3994 209.032C31.1487 208.92 30.9247 208.781 30.7274 208.616C30.53 208.451 30.37 208.248 30.2474 208.008C30.13 207.763 30.0714 207.467 30.0714 207.12C30.0714 206.811 30.1354 206.515 30.2634 206.232C30.3914 205.944 30.578 205.693 30.8234 205.48C31.0687 205.261 31.37 205.088 31.7274 204.96C32.0847 204.832 32.4927 204.768 32.9514 204.768C33.4847 204.768 33.962 204.853 34.3834 205.024C34.81 205.189 35.178 205.419 35.4874 205.712L35.1674 206.232ZM39.9209 213.128C39.2809 213.128 38.7875 212.949 38.4409 212.592C38.0995 212.235 37.9289 211.72 37.9289 211.048V206.088H36.9529C36.8675 206.088 36.7955 206.064 36.7369 206.016C36.6782 205.963 36.6489 205.883 36.6489 205.776V205.208L37.9769 205.04L38.3049 202.536C38.3155 202.456 38.3502 202.392 38.4089 202.344C38.4675 202.291 38.5422 202.264 38.6329 202.264H39.3529V205.056H41.6729V206.088H39.3529V210.952C39.3529 211.293 39.4355 211.547 39.6009 211.712C39.7662 211.877 39.9795 211.96 40.2409 211.96C40.3902 211.96 40.5182 211.941 40.6249 211.904C40.7369 211.861 40.8329 211.816 40.9129 211.768C40.9929 211.72 41.0595 211.677 41.1129 211.64C41.1715 211.597 41.2222 211.576 41.2649 211.576C41.3395 211.576 41.4062 211.621 41.4649 211.712L41.8809 212.392C41.6355 212.621 41.3395 212.803 40.9929 212.936C40.6462 213.064 40.2889 213.128 39.9209 213.128ZM46.6416 204.768C47.127 204.768 47.575 204.851 47.9856 205.016C48.3963 205.176 48.751 205.411 49.0496 205.72C49.3483 206.024 49.5803 206.403 49.7456 206.856C49.9163 207.304 50.0016 207.816 50.0016 208.392C50.0016 208.616 49.9776 208.765 49.9296 208.84C49.8816 208.915 49.791 208.952 49.6576 208.952H44.2656C44.2763 209.464 44.3456 209.909 44.4736 210.288C44.6016 210.667 44.7776 210.984 45.0016 211.24C45.2256 211.491 45.4923 211.68 45.8016 211.808C46.111 211.931 46.4576 211.992 46.8416 211.992C47.199 211.992 47.5056 211.952 47.7616 211.872C48.023 211.787 48.247 211.696 48.4336 211.6C48.6203 211.504 48.775 211.416 48.8976 211.336C49.0256 211.251 49.135 211.208 49.2256 211.208C49.343 211.208 49.4336 211.253 49.4976 211.344L49.8976 211.864C49.7216 212.077 49.511 212.264 49.2656 212.424C49.0203 212.579 48.7563 212.707 48.4736 212.808C48.1963 212.909 47.9083 212.984 47.6096 213.032C47.311 213.085 47.015 213.112 46.7216 213.112C46.1616 213.112 45.6443 213.019 45.1696 212.832C44.7003 212.64 44.2923 212.363 43.9456 212C43.6043 211.632 43.3376 211.179 43.1456 210.64C42.9536 210.101 42.8576 209.483 42.8576 208.784C42.8576 208.219 42.943 207.691 43.1136 207.2C43.2896 206.709 43.5403 206.285 43.8656 205.928C44.191 205.565 44.5883 205.283 45.0576 205.08C45.527 204.872 46.055 204.768 46.6416 204.768ZM46.6736 205.816C45.9856 205.816 45.4443 206.016 45.0496 206.416C44.655 206.811 44.4096 207.36 44.3136 208.064H48.7216C48.7216 207.733 48.6763 207.432 48.5856 207.16C48.495 206.883 48.3616 206.645 48.1856 206.448C48.0096 206.245 47.7936 206.091 47.5376 205.984C47.287 205.872 46.999 205.816 46.6736 205.816ZM57.5283 213C57.3256 213 57.1976 212.901 57.1443 212.704L57.0163 211.72C56.6696 212.141 56.2723 212.48 55.8243 212.736C55.3816 212.987 54.8723 213.112 54.2963 213.112C53.8323 213.112 53.4109 213.024 53.0323 212.848C52.6536 212.667 52.3309 212.403 52.0643 212.056C51.7976 211.709 51.5923 211.277 51.4483 210.76C51.3043 210.243 51.2323 209.648 51.2323 208.976C51.2323 208.379 51.3123 207.824 51.4723 207.312C51.6323 206.795 51.8616 206.347 52.1603 205.968C52.4643 205.589 52.8323 205.293 53.2643 205.08C53.6963 204.861 54.1869 204.752 54.7363 204.752C55.2323 204.752 55.6563 204.837 56.0083 205.008C56.3603 205.173 56.6749 205.408 56.9523 205.712V201.216H58.3763V213H57.5283ZM54.7682 211.96C55.2323 211.96 55.6376 211.853 55.9843 211.64C56.3363 211.427 56.6589 211.125 56.9523 210.736V206.816C56.6909 206.464 56.4029 206.219 56.0883 206.08C55.7789 205.936 55.4349 205.864 55.0563 205.864C54.2989 205.864 53.7176 206.133 53.3123 206.672C52.9069 207.211 52.7043 207.979 52.7043 208.976C52.7043 209.504 52.7496 209.957 52.8403 210.336C52.9309 210.709 53.0643 211.019 53.2403 211.264C53.4163 211.504 53.6323 211.68 53.8883 211.792C54.1443 211.904 54.4376 211.96 54.7682 211.96ZM63.9035 213V201.216H65.3355V206.064C65.6715 205.675 66.0555 205.363 66.4875 205.128C66.9248 204.888 67.4235 204.768 67.9835 204.768C68.4528 204.768 68.8768 204.856 69.2555 205.032C69.6342 205.208 69.9568 205.472 70.2235 205.824C70.4902 206.171 70.6955 206.603 70.8395 207.12C70.9835 207.632 71.0555 208.224 71.0555 208.896C71.0555 209.493 70.9755 210.051 70.8155 210.568C70.6555 211.08 70.4235 211.525 70.1195 211.904C69.8208 212.277 69.4528 212.573 69.0155 212.792C68.5835 213.005 68.0955 213.112 67.5515 213.112C67.0288 213.112 66.5835 213.011 66.2155 212.808C65.8528 212.605 65.5355 212.323 65.2635 211.96L65.1915 212.696C65.1488 212.899 65.0262 213 64.8235 213H63.9035ZM67.5195 205.904C67.0555 205.904 66.6475 206.011 66.2955 206.224C65.9488 206.437 65.6288 206.739 65.3355 207.128V211.048C65.5915 211.4 65.8742 211.648 66.1835 211.792C66.4982 211.936 66.8475 212.008 67.2315 212.008C67.9888 212.008 68.5702 211.739 68.9755 211.2C69.3808 210.661 69.5835 209.893 69.5835 208.896C69.5835 208.368 69.5355 207.915 69.4395 207.536C69.3488 207.157 69.2155 206.848 69.0395 206.608C68.8635 206.363 68.6475 206.184 68.3915 206.072C68.1355 205.96 67.8448 205.904 67.5195 205.904ZM74.9659 215.392C74.9179 215.499 74.8565 215.584 74.7819 215.648C74.7125 215.712 74.6032 215.744 74.4539 215.744H73.3979L74.8779 212.528L71.5339 204.896H72.7659C72.8885 204.896 72.9845 204.928 73.0539 204.992C73.1232 205.051 73.1739 205.117 73.2059 205.192L75.3739 210.296C75.4219 210.413 75.4619 210.531 75.4939 210.648C75.5312 210.765 75.5632 210.885 75.5899 211.008C75.6272 210.885 75.6645 210.765 75.7019 210.648C75.7392 210.531 75.7819 210.411 75.8299 210.288L77.9339 205.192C77.9659 205.107 78.0192 205.037 78.0939 204.984C78.1739 204.925 78.2592 204.896 78.3499 204.896H79.4859L74.9659 215.392ZM84.9991 211.912H87.4631V204.096C87.4631 203.861 87.4711 203.624 87.4871 203.384L85.4391 205.136C85.3858 205.179 85.3325 205.211 85.2791 205.232C85.2258 205.248 85.1751 205.256 85.1271 205.256C85.0471 205.256 84.9751 205.24 84.9111 205.208C84.8471 205.171 84.7991 205.128 84.7671 205.08L84.3191 204.464L87.7271 201.512H88.8871V211.912H91.1431V213H84.9991V211.912ZM96.2461 213V204.896H97.0941C97.2968 204.896 97.4248 204.995 97.4781 205.192L97.5821 206.024C97.8808 205.656 98.2141 205.355 98.5821 205.12C98.9555 204.885 99.3875 204.768 99.8781 204.768C100.427 204.768 100.87 204.92 101.206 205.224C101.547 205.528 101.793 205.939 101.942 206.456C102.054 206.163 102.201 205.909 102.382 205.696C102.569 205.483 102.777 205.307 103.006 205.168C103.235 205.029 103.478 204.928 103.734 204.864C103.995 204.8 104.259 204.768 104.526 204.768C104.953 204.768 105.331 204.837 105.662 204.976C105.998 205.109 106.281 205.307 106.51 205.568C106.745 205.829 106.923 206.152 107.046 206.536C107.169 206.915 107.23 207.349 107.23 207.84V213H105.806V207.84C105.806 207.205 105.667 206.725 105.39 206.4C105.113 206.069 104.71 205.904 104.182 205.904C103.947 205.904 103.723 205.947 103.51 206.032C103.302 206.112 103.118 206.232 102.958 206.392C102.798 206.552 102.67 206.755 102.574 207C102.483 207.24 102.438 207.52 102.438 207.84V213H101.014V207.84C101.014 207.189 100.883 206.704 100.622 206.384C100.361 206.064 99.9795 205.904 99.4781 205.904C99.1261 205.904 98.7981 206 98.4941 206.192C98.1955 206.379 97.9208 206.635 97.6701 206.96V213H96.2461ZM110.971 204.896V213H109.547V204.896H110.971ZM111.291 202.352C111.291 202.491 111.261 202.621 111.203 202.744C111.149 202.861 111.075 202.968 110.979 203.064C110.888 203.155 110.781 203.227 110.659 203.28C110.536 203.333 110.405 203.36 110.267 203.36C110.128 203.36 109.997 203.333 109.875 203.28C109.757 203.227 109.651 203.155 109.555 203.064C109.464 202.968 109.392 202.861 109.339 202.744C109.285 202.621 109.259 202.491 109.259 202.352C109.259 202.213 109.285 202.083 109.339 201.96C109.392 201.832 109.464 201.723 109.555 201.632C109.651 201.536 109.757 201.461 109.875 201.408C109.997 201.355 110.128 201.328 110.267 201.328C110.405 201.328 110.536 201.355 110.659 201.408C110.781 201.461 110.888 201.536 110.979 201.632C111.075 201.723 111.149 201.832 111.203 201.96C111.261 202.083 111.291 202.213 111.291 202.352ZM115.065 201.216V213H113.641V201.216H115.065ZM119.158 201.216V213H117.734V201.216H119.158ZM123.252 204.896V213H121.828V204.896H123.252ZM123.572 202.352C123.572 202.491 123.543 202.621 123.484 202.744C123.431 202.861 123.356 202.968 123.26 203.064C123.169 203.155 123.063 203.227 122.94 203.28C122.817 203.333 122.687 203.36 122.548 203.36C122.409 203.36 122.279 203.333 122.156 203.28C122.039 203.227 121.932 203.155 121.836 203.064C121.745 202.968 121.673 202.861 121.62 202.744C121.567 202.621 121.54 202.491 121.54 202.352C121.54 202.213 121.567 202.083 121.62 201.96C121.673 201.832 121.745 201.723 121.836 201.632C121.932 201.536 122.039 201.461 122.156 201.408C122.279 201.355 122.409 201.328 122.548 201.328C122.687 201.328 122.817 201.355 122.94 201.408C123.063 201.461 123.169 201.536 123.26 201.632C123.356 201.723 123.431 201.832 123.484 201.96C123.543 202.083 123.572 202.213 123.572 202.352ZM129.042 204.768C129.634 204.768 130.167 204.867 130.642 205.064C131.122 205.261 131.527 205.541 131.858 205.904C132.194 206.267 132.45 206.707 132.626 207.224C132.807 207.736 132.898 208.309 132.898 208.944C132.898 209.584 132.807 210.16 132.626 210.672C132.45 211.184 132.194 211.621 131.858 211.984C131.527 212.347 131.122 212.627 130.642 212.824C130.167 213.016 129.634 213.112 129.042 213.112C128.45 213.112 127.914 213.016 127.434 212.824C126.959 212.627 126.554 212.347 126.218 211.984C125.882 211.621 125.623 211.184 125.442 210.672C125.26 210.16 125.17 209.584 125.17 208.944C125.17 208.309 125.26 207.736 125.442 207.224C125.623 206.707 125.882 206.267 126.218 205.904C126.554 205.541 126.959 205.261 127.434 205.064C127.914 204.867 128.45 204.768 129.042 204.768ZM129.042 212C129.842 212 130.439 211.733 130.834 211.2C131.228 210.661 131.426 209.912 131.426 208.952C131.426 207.987 131.228 207.235 130.834 206.696C130.439 206.157 129.842 205.888 129.042 205.888C128.636 205.888 128.284 205.957 127.986 206.096C127.687 206.235 127.436 206.435 127.234 206.696C127.036 206.957 126.887 207.28 126.786 207.664C126.69 208.043 126.642 208.472 126.642 208.952C126.642 209.432 126.69 209.861 126.786 210.24C126.887 210.619 127.036 210.939 127.234 211.2C127.436 211.456 127.687 211.653 127.986 211.792C128.284 211.931 128.636 212 129.042 212ZM134.652 213V204.896H135.5C135.703 204.896 135.831 204.995 135.884 205.192L135.996 206.072C136.348 205.683 136.74 205.368 137.172 205.128C137.61 204.888 138.114 204.768 138.684 204.768C139.127 204.768 139.516 204.843 139.852 204.992C140.194 205.136 140.476 205.344 140.7 205.616C140.93 205.883 141.103 206.205 141.22 206.584C141.338 206.963 141.396 207.381 141.396 207.84V213H139.972V207.84C139.972 207.227 139.831 206.752 139.548 206.416C139.271 206.075 138.844 205.904 138.268 205.904C137.847 205.904 137.452 206.005 137.084 206.208C136.722 206.411 136.386 206.685 136.076 207.032V213H134.652ZM147.583 203.672V207.088H150.839V208.168H147.583V211.608H146.415V208.168H143.175V207.088H146.415V203.672H147.583ZM163.95 201.536V202.84H160.246V213H158.694V202.84H154.974V201.536H163.95ZM166.876 204.768C167.361 204.768 167.809 204.851 168.22 205.016C168.631 205.176 168.985 205.411 169.284 205.72C169.583 206.024 169.815 206.403 169.98 206.856C170.151 207.304 170.236 207.816 170.236 208.392C170.236 208.616 170.212 208.765 170.164 208.84C170.116 208.915 170.025 208.952 169.892 208.952H164.5C164.511 209.464 164.58 209.909 164.708 210.288C164.836 210.667 165.012 210.984 165.236 211.24C165.46 211.491 165.727 211.68 166.036 211.808C166.345 211.931 166.692 211.992 167.076 211.992C167.433 211.992 167.74 211.952 167.996 211.872C168.257 211.787 168.481 211.696 168.668 211.6C168.855 211.504 169.009 211.416 169.132 211.336C169.26 211.251 169.369 211.208 169.46 211.208C169.577 211.208 169.668 211.253 169.732 211.344L170.132 211.864C169.956 212.077 169.745 212.264 169.5 212.424C169.255 212.579 168.991 212.707 168.708 212.808C168.431 212.909 168.143 212.984 167.844 213.032C167.545 213.085 167.249 213.112 166.956 213.112C166.396 213.112 165.879 213.019 165.404 212.832C164.935 212.64 164.527 212.363 164.18 212C163.839 211.632 163.572 211.179 163.38 210.64C163.188 210.101 163.092 209.483 163.092 208.784C163.092 208.219 163.177 207.691 163.348 207.2C163.524 206.709 163.775 206.285 164.1 205.928C164.425 205.565 164.823 205.283 165.292 205.08C165.761 204.872 166.289 204.768 166.876 204.768ZM166.908 205.816C166.22 205.816 165.679 206.016 165.284 206.416C164.889 206.811 164.644 207.36 164.548 208.064H168.956C168.956 207.733 168.911 207.432 168.82 207.16C168.729 206.883 168.596 206.645 168.42 206.448C168.244 206.245 168.028 206.091 167.772 205.984C167.521 205.872 167.233 205.816 166.908 205.816ZM178.011 213H177.379C177.24 213 177.128 212.979 177.043 212.936C176.957 212.893 176.901 212.803 176.875 212.664L176.715 211.912C176.501 212.104 176.293 212.277 176.091 212.432C175.888 212.581 175.675 212.709 175.451 212.816C175.227 212.917 174.987 212.995 174.731 213.048C174.48 213.101 174.2 213.128 173.891 213.128C173.576 213.128 173.28 213.085 173.003 213C172.731 212.909 172.493 212.776 172.291 212.6C172.088 212.424 171.925 212.203 171.803 211.936C171.685 211.664 171.627 211.344 171.627 210.976C171.627 210.656 171.715 210.349 171.891 210.056C172.067 209.757 172.349 209.493 172.739 209.264C173.133 209.035 173.648 208.848 174.283 208.704C174.917 208.555 175.693 208.469 176.611 208.448V207.816C176.611 207.187 176.475 206.712 176.203 206.392C175.936 206.067 175.539 205.904 175.011 205.904C174.664 205.904 174.371 205.949 174.131 206.04C173.896 206.125 173.691 206.224 173.515 206.336C173.344 206.443 173.195 206.541 173.067 206.632C172.944 206.717 172.821 206.76 172.699 206.76C172.603 206.76 172.517 206.736 172.443 206.688C172.373 206.635 172.317 206.571 172.275 206.496L172.019 206.04C172.467 205.608 172.949 205.285 173.467 205.072C173.984 204.859 174.557 204.752 175.187 204.752C175.64 204.752 176.043 204.827 176.395 204.976C176.747 205.125 177.043 205.333 177.283 205.6C177.523 205.867 177.704 206.189 177.827 206.568C177.949 206.947 178.011 207.363 178.011 207.816V213ZM174.315 212.128C174.565 212.128 174.795 212.104 175.003 212.056C175.211 212.003 175.405 211.931 175.587 211.84C175.773 211.744 175.949 211.629 176.115 211.496C176.285 211.363 176.451 211.211 176.611 211.04V209.352C175.955 209.373 175.397 209.427 174.939 209.512C174.48 209.592 174.107 209.699 173.819 209.832C173.531 209.965 173.32 210.123 173.187 210.304C173.059 210.485 172.995 210.688 172.995 210.912C172.995 211.125 173.029 211.309 173.099 211.464C173.168 211.619 173.261 211.747 173.379 211.848C173.496 211.944 173.635 212.016 173.795 212.064C173.955 212.107 174.128 212.128 174.315 212.128ZM185.696 206.336C185.653 206.395 185.611 206.44 185.568 206.472C185.525 206.504 185.464 206.52 185.384 206.52C185.304 206.52 185.216 206.488 185.12 206.424C185.029 206.355 184.912 206.28 184.768 206.2C184.624 206.12 184.448 206.048 184.24 205.984C184.037 205.915 183.787 205.88 183.488 205.88C183.093 205.88 182.744 205.952 182.44 206.096C182.136 206.235 181.88 206.437 181.672 206.704C181.469 206.971 181.315 207.293 181.208 207.672C181.107 208.051 181.056 208.475 181.056 208.944C181.056 209.435 181.112 209.872 181.224 210.256C181.336 210.635 181.493 210.955 181.696 211.216C181.899 211.472 182.144 211.669 182.432 211.808C182.725 211.941 183.053 212.008 183.416 212.008C183.763 212.008 184.048 211.968 184.272 211.888C184.496 211.803 184.683 211.709 184.832 211.608C184.981 211.507 185.104 211.416 185.2 211.336C185.296 211.251 185.392 211.208 185.488 211.208C185.611 211.208 185.701 211.253 185.76 211.344L186.16 211.864C185.808 212.296 185.368 212.613 184.84 212.816C184.312 213.013 183.755 213.112 183.168 213.112C182.661 213.112 182.189 213.019 181.752 212.832C181.32 212.645 180.944 212.376 180.624 212.024C180.304 211.667 180.051 211.229 179.864 210.712C179.683 210.195 179.592 209.605 179.592 208.944C179.592 208.341 179.675 207.784 179.84 207.272C180.011 206.76 180.256 206.32 180.576 205.952C180.901 205.579 181.301 205.288 181.776 205.08C182.251 204.872 182.795 204.768 183.408 204.768C183.973 204.768 184.475 204.861 184.912 205.048C185.349 205.229 185.736 205.488 186.072 205.824L185.696 206.336ZM187.637 213V201.216H189.061V205.984C189.407 205.616 189.791 205.323 190.213 205.104C190.634 204.88 191.119 204.768 191.669 204.768C192.111 204.768 192.501 204.843 192.837 204.992C193.178 205.136 193.461 205.344 193.685 205.616C193.914 205.883 194.087 206.205 194.205 206.584C194.322 206.963 194.381 207.381 194.381 207.84V213H192.957V207.84C192.957 207.227 192.815 206.752 192.533 206.416C192.255 206.075 191.829 205.904 191.253 205.904C190.831 205.904 190.437 206.005 190.069 206.208C189.706 206.411 189.37 206.685 189.061 207.032V213H187.637ZM199.735 204.768C200.221 204.768 200.669 204.851 201.079 205.016C201.49 205.176 201.845 205.411 202.143 205.72C202.442 206.024 202.674 206.403 202.839 206.856C203.01 207.304 203.095 207.816 203.095 208.392C203.095 208.616 203.071 208.765 203.023 208.84C202.975 208.915 202.885 208.952 202.751 208.952H197.359C197.37 209.464 197.439 209.909 197.567 210.288C197.695 210.667 197.871 210.984 198.095 211.24C198.319 211.491 198.586 211.68 198.895 211.808C199.205 211.931 199.551 211.992 199.935 211.992C200.293 211.992 200.599 211.952 200.855 211.872C201.117 211.787 201.341 211.696 201.527 211.6C201.714 211.504 201.869 211.416 201.991 211.336C202.119 211.251 202.229 211.208 202.319 211.208C202.437 211.208 202.527 211.253 202.591 211.344L202.991 211.864C202.815 212.077 202.605 212.264 202.359 212.424C202.114 212.579 201.85 212.707 201.567 212.808C201.29 212.909 201.002 212.984 200.703 213.032C200.405 213.085 200.109 213.112 199.815 213.112C199.255 213.112 198.738 213.019 198.263 212.832C197.794 212.64 197.386 212.363 197.039 212C196.698 211.632 196.431 211.179 196.239 210.64C196.047 210.101 195.951 209.483 195.951 208.784C195.951 208.219 196.037 207.691 196.207 207.2C196.383 206.709 196.634 206.285 196.959 205.928C197.285 205.565 197.682 205.283 198.151 205.08C198.621 204.872 199.149 204.768 199.735 204.768ZM199.767 205.816C199.079 205.816 198.538 206.016 198.143 206.416C197.749 206.811 197.503 207.36 197.407 208.064H201.815C201.815 207.733 201.77 207.432 201.679 207.16C201.589 206.883 201.455 206.645 201.279 206.448C201.103 206.245 200.887 206.091 200.631 205.984C200.381 205.872 200.093 205.816 199.767 205.816ZM204.918 213V204.896H205.734C205.889 204.896 205.995 204.925 206.054 204.984C206.113 205.043 206.153 205.144 206.174 205.288L206.27 206.552C206.547 205.987 206.889 205.547 207.294 205.232C207.705 204.912 208.185 204.752 208.734 204.752C208.958 204.752 209.161 204.779 209.342 204.832C209.523 204.88 209.691 204.949 209.846 205.04L209.662 206.104C209.625 206.237 209.542 206.304 209.414 206.304C209.339 206.304 209.225 206.28 209.07 206.232C208.915 206.179 208.699 206.152 208.422 206.152C207.926 206.152 207.51 206.296 207.174 206.584C206.843 206.872 206.566 207.291 206.342 207.84V213H204.918ZM216.011 206.232C215.947 206.349 215.848 206.408 215.715 206.408C215.635 206.408 215.544 206.379 215.443 206.32C215.342 206.261 215.216 206.197 215.067 206.128C214.923 206.053 214.75 205.987 214.547 205.928C214.344 205.864 214.104 205.832 213.827 205.832C213.587 205.832 213.371 205.864 213.179 205.928C212.987 205.987 212.822 206.069 212.683 206.176C212.55 206.283 212.446 206.408 212.371 206.552C212.302 206.691 212.267 206.843 212.267 207.008C212.267 207.216 212.326 207.389 212.443 207.528C212.566 207.667 212.726 207.787 212.923 207.888C213.12 207.989 213.344 208.08 213.595 208.16C213.846 208.235 214.102 208.317 214.363 208.408C214.63 208.493 214.888 208.589 215.139 208.696C215.39 208.803 215.614 208.936 215.811 209.096C216.008 209.256 216.166 209.453 216.283 209.688C216.406 209.917 216.467 210.195 216.467 210.52C216.467 210.893 216.4 211.24 216.267 211.56C216.134 211.875 215.936 212.149 215.675 212.384C215.414 212.613 215.094 212.795 214.715 212.928C214.336 213.061 213.899 213.128 213.403 213.128C212.838 213.128 212.326 213.037 211.867 212.856C211.408 212.669 211.019 212.432 210.699 212.144L211.035 211.6C211.078 211.531 211.128 211.477 211.187 211.44C211.246 211.403 211.323 211.384 211.419 211.384C211.515 211.384 211.616 211.421 211.723 211.496C211.83 211.571 211.958 211.653 212.107 211.744C212.262 211.835 212.446 211.917 212.659 211.992C212.878 212.067 213.15 212.104 213.475 212.104C213.752 212.104 213.995 212.069 214.203 212C214.411 211.925 214.584 211.827 214.723 211.704C214.862 211.581 214.963 211.44 215.027 211.28C215.096 211.12 215.131 210.949 215.131 210.768C215.131 210.544 215.07 210.36 214.947 210.216C214.83 210.067 214.672 209.941 214.475 209.84C214.278 209.733 214.051 209.643 213.795 209.568C213.544 209.488 213.286 209.405 213.019 209.32C212.758 209.235 212.499 209.139 212.243 209.032C211.992 208.92 211.768 208.781 211.571 208.616C211.374 208.451 211.214 208.248 211.091 208.008C210.974 207.763 210.915 207.467 210.915 207.12C210.915 206.811 210.979 206.515 211.107 206.232C211.235 205.944 211.422 205.693 211.667 205.48C211.912 205.261 212.214 205.088 212.571 204.96C212.928 204.832 213.336 204.768 213.795 204.768C214.328 204.768 214.806 204.853 215.227 205.024C215.654 205.189 216.022 205.419 216.331 205.712L216.011 206.232Z" fill="#1F3965"/>
</svg>
